<?xml version="1.0" encoding="UTF-8"?>
<svg xmlns="http://www.w3.org/2000/svg" xmlns:xlink="http://www.w3.org/1999/xlink" width="20pt" height="20pt" viewBox="0 0 20 20" version="1.1">
<g id="surface1">
<path style=" stroke:none;fill-rule:nonzero;fill:rgb(47.45098%,75.294118%,54.509804%);fill-opacity:1;" d="M 18.316406 9.394531 L 18.316406 7.28125 C 18.316406 7.105469 18.246094 6.9375 18.125 6.816406 L 12.050781 0.742188 C 11.929688 0.621094 11.761719 0.550781 11.585938 0.550781 L 2.796875 0.550781 C 2.179688 0.550781 1.683594 1.046875 1.683594 1.660156 L 1.683594 15.449219 Z M 18.316406 9.394531 "/>
<path style=" stroke:none;fill-rule:nonzero;fill:rgb(52.941176%,83.921569%,60.784314%);fill-opacity:1;" d="M 14.632812 3.324219 L 12.050781 0.742188 C 11.929688 0.621094 11.761719 0.550781 11.585938 0.550781 L 2.796875 0.550781 C 2.179688 0.550781 1.683594 1.046875 1.683594 1.660156 L 1.683594 8.039062 Z M 14.632812 3.324219 "/>
<path style=" stroke:none;fill-rule:nonzero;fill:rgb(26.666667%,26.666667%,26.666667%);fill-opacity:1;" d="M 16.261719 8.164062 L 11.660156 8.164062 C 11.105469 8.164062 10.65625 7.714844 10.652344 7.160156 L 10.652344 2.558594 C 10.652344 2.398438 10.785156 2.269531 10.945312 2.269531 C 11.105469 2.269531 11.234375 2.398438 11.234375 2.558594 L 11.234375 7.160156 C 11.234375 7.394531 11.425781 7.585938 11.660156 7.585938 L 16.261719 7.585938 C 16.367188 7.582031 16.464844 7.636719 16.519531 7.726562 C 16.574219 7.820312 16.574219 7.933594 16.519531 8.023438 C 16.464844 8.113281 16.367188 8.167969 16.261719 8.164062 Z M 16.261719 8.164062 "/>
<path style=" stroke:none;fill-rule:nonzero;fill:rgb(26.666667%,26.666667%,26.666667%);fill-opacity:1;" d="M 14.574219 19.933594 L 2.796875 19.933594 C 1.914062 19.933594 1.199219 19.21875 1.199219 18.339844 L 1.199219 1.660156 C 1.199219 0.78125 1.914062 0.0664062 2.796875 0.0664062 L 11.585938 0.0664062 C 11.886719 0.0664062 12.179688 0.1875 12.394531 0.402344 L 18.464844 6.472656 C 18.679688 6.6875 18.800781 6.976562 18.800781 7.28125 L 18.800781 13.558594 C 18.800781 13.824219 18.582031 14.042969 18.316406 14.042969 C 18.050781 14.042969 17.832031 13.824219 17.832031 13.558594 L 17.832031 7.28125 C 17.832031 7.234375 17.816406 7.191406 17.78125 7.15625 L 11.710938 1.085938 C 11.675781 1.050781 11.632812 1.035156 11.585938 1.035156 L 2.796875 1.035156 C 2.449219 1.035156 2.167969 1.316406 2.167969 1.660156 L 2.167969 18.339844 C 2.167969 18.683594 2.449219 18.964844 2.796875 18.964844 L 14.574219 18.964844 C 14.839844 18.964844 15.058594 19.183594 15.058594 19.449219 C 15.058594 19.71875 14.839844 19.933594 14.574219 19.933594 Z M 14.574219 19.933594 "/>
<path style=" stroke:none;fill-rule:nonzero;fill:rgb(26.666667%,26.666667%,26.666667%);fill-opacity:1;" d="M 9.550781 14.726562 C 9.550781 15.519531 9.195312 15.617188 8.882812 15.617188 C 8.71875 15.617188 8.523438 15.589844 8.292969 15.53125 L 8.0625 15.476562 L 8.0625 16.714844 L 8.183594 16.761719 C 8.394531 16.839844 8.65625 16.882812 8.960938 16.882812 C 9.609375 16.882812 10.113281 16.6875 10.457031 16.304688 C 10.792969 15.925781 10.96875 15.382812 10.96875 14.691406 L 10.96875 9.972656 L 9.550781 9.972656 Z M 16.089844 14.054688 C 15.976562 13.816406 15.796875 13.601562 15.558594 13.417969 C 15.324219 13.238281 14.972656 13.050781 14.488281 12.847656 C 14.085938 12.683594 13.804688 12.546875 13.65625 12.453125 C 13.523438 12.363281 13.425781 12.269531 13.371094 12.179688 C 13.320312 12.089844 13.292969 11.980469 13.292969 11.847656 C 13.292969 11.664062 13.355469 11.519531 13.488281 11.410156 C 13.625 11.292969 13.84375 11.234375 14.132812 11.234375 C 14.550781 11.234375 15.035156 11.347656 15.574219 11.578125 L 15.75 11.652344 L 16.214844 10.457031 L 16.054688 10.386719 C 15.429688 10.109375 14.792969 9.972656 14.160156 9.972656 C 13.484375 9.972656 12.933594 10.136719 12.523438 10.46875 C 12.105469 10.808594 11.890625 11.277344 11.890625 11.867188 C 11.890625 12.328125 12.023438 12.734375 12.289062 13.070312 C 12.546875 13.398438 12.972656 13.679688 13.589844 13.929688 C 14.261719 14.203125 14.535156 14.378906 14.648438 14.484375 C 14.789062 14.613281 14.859375 14.765625 14.859375 14.953125 C 14.859375 15.15625 14.785156 15.316406 14.632812 15.4375 C 14.355469 15.660156 13.710938 15.695312 12.96875 15.519531 C 12.664062 15.445312 12.367188 15.34375 12.082031 15.210938 L 11.816406 15.085938 L 11.816406 16.476562 L 11.921875 16.527344 C 12.402344 16.761719 13.023438 16.882812 13.769531 16.882812 C 14.527344 16.882812 15.136719 16.707031 15.574219 16.359375 C 16.03125 16 16.261719 15.503906 16.261719 14.882812 C 16.261719 14.566406 16.203125 14.289062 16.089844 14.054688 Z M 16.089844 14.054688 "/>
</g>
</svg>
